<svg version="1.1" xmlns="http://www.w3.org/2000/svg" style="display: block;" width="256" height="170" viewBox="0.00 0.00 2048.00 1360.00" preserveAspectRatio="none"><g id="svg-group-3e647898-03ad-482d-9081-28cbf34349f9">
<path transform="translate(0,0)" fill="rgb(254,254,254)" d="M 752.039 858.261 C 762.762 856.415 789.565 859.502 797.817 865.456 C 819.567 881.149 838.014 914 821.264 939.182 C 796.805 975.953 760.611 998.507 729.221 1028.56 C 710.536 1046.44 694.3 1065.67 674.504 1082.14 C 669.21 1086.54 663.153 1087.44 656.5 1088.99 C 655.301 1089.23 654.099 1089.47 652.895 1089.7 C 634.052 1093.19 621.298 1085.68 605.465 1076.63 C 585.961 1065.48 571.568 1023.86 586.459 1005.83 C 601.85 987.195 622.647 967.723 640.33 950.071 L 684.408 906.157 C 703.208 887.479 724.915 862.469 752.039 858.261 z"/>
<path transform="translate(0,0)" fill="rgb(254,254,254)" d="M 884.869 1000.19 C 904.133 998.935 920.087 1001.55 932.412 1017.7 C 941.716 1028.29 953.007 1055.07 949.325 1070.19 C 942.302 1099.04 901.761 1130.15 881.988 1151.61 C 868.733 1166 856.128 1176.57 843.329 1190.13 C 830.522 1203.69 815.24 1215.83 801.242 1226.84 C 796.757 1227.3 791.949 1227.59 787.426 1227.95 C 759.196 1228.53 727.729 1221.71 721.124 1187.16 C 717.933 1170.47 719.269 1153.63 729.784 1139.67 C 747.326 1116.4 770.238 1096.29 790.775 1075.63 C 811.439 1055.34 832.047 1032.99 854.706 1015.31 C 863.546 1008.41 873.807 1002.02 884.869 1000.19 z"/>
<path transform="translate(0,0)" fill="rgb(254,254,254)" d="M 592.437 746.264 C 605.109 742.854 626.464 749.143 636.173 757.71 C 704.051 817.607 582.606 896.677 545.257 936.627 C 534.324 948.321 526.11 951.03 511.129 951.987 C 477.373 952.359 450.922 935.357 445.614 900.482 C 440.96 869.908 465.082 849.934 484.159 830.127 C 497.603 816.169 512.575 804.651 526.675 791.739 C 550.613 769.815 558.262 751.485 592.437 746.264 z"/>
<path transform="translate(0,0)" fill="rgb(254,254,254)" d="M 279.532 0 L 325.777 0 C 331.977 13.8357 363.814 16.3737 377.406 20.2111 C 396.383 25.569 415.934 31.9683 433.958 40.1052 C 447.304 46.8649 473.087 66.8982 484.905 76.8697 C 533.508 117.876 566.934 138.048 630.567 150.765 C 669.303 158.507 684.934 155.474 724.669 152.325 C 729.99 151.903 740.255 148.787 743.447 149.311 C 744.971 154.415 733.323 164.066 730.142 167.603 C 673.026 231.111 564.595 273.498 571.116 373.613 C 572.193 390.143 572.62 407.955 579.048 423.601 C 606.348 490.048 681.082 531.307 751.429 518.174 C 839.496 501.732 885.853 419.826 963.457 383.891 C 981.068 375.909 1000.51 375.861 1019.33 376.566 C 1061.11 377.553 1092.89 398.277 1121.77 426.736 C 1190.17 489.073 1252.9 557.48 1319.45 621.715 L 1457.06 755.079 C 1466.03 763.614 1475.8 771.187 1484.9 779.652 C 1505.97 799.249 1525.44 820.267 1546.16 840.241 C 1580.5 872.349 1564.23 938.701 1517.17 948.506 C 1501.25 951.823 1485.33 953.834 1470.97 944.397 C 1452.44 932.219 1435.75 913.441 1420.07 897.744 L 1354.7 832.238 C 1320.08 797.704 1285.26 760.936 1249.11 728.245 C 1216.31 698.582 1186.46 664.054 1151.5 637.572 C 1148.88 635.585 1140.08 635.095 1136.63 635.141 C 1122.64 635.329 1110.71 644.649 1103.83 656.618 C 1098.55 666.021 1097.25 677.147 1100.23 687.514 C 1106.28 708.257 1163.47 755.317 1180.82 771.751 C 1198.11 788.127 1215.58 806.131 1232.77 822.828 C 1272.18 855.933 1304.66 894.143 1344.18 926.815 C 1353.66 935.73 1362.35 944.536 1371.54 953.849 C 1389.65 972.208 1409.31 987.994 1420.13 1012.12 C 1434.56 1044.32 1407.33 1087.93 1374.11 1094.71 C 1360.41 1097.5 1343.22 1095.33 1330.89 1087.35 C 1305.5 1070.91 1285.36 1045.59 1263.25 1024.67 L 1189.13 954.954 C 1178.42 945.061 1167.5 935.974 1156.84 925.827 C 1112.6 883.699 1070.66 837.82 1026.28 796.029 C 1010.28 794.882 996.245 794.25 983.331 805.433 C 968.465 818.306 970.661 832.991 971.361 850.709 L 971.917 851.679 C 982.7 870.192 1041.32 922.52 1059.85 938.911 C 1097.3 972.037 1132.52 1007.93 1168.59 1042.51 C 1192.4 1065.34 1249.74 1113.18 1264.52 1140.59 C 1272.84 1156.02 1274.7 1177.01 1270.47 1194.07 C 1266.91 1208.43 1252.03 1224.28 1239.62 1231.52 C 1223.09 1241.17 1203.27 1241.63 1185.13 1236.72 C 1177.53 1234.67 1163.01 1229.78 1159.17 1222.26 C 1153.56 1211.29 1159.67 1192.91 1158.74 1180.62 C 1155.39 1136.42 1119.84 1088.24 1078.27 1072.23 C 1069.1 1068.69 1052.52 1063.57 1042.93 1065.75 C 1039.05 1066.63 1034.95 1067.72 1031.42 1065.32 C 1026.71 1062.11 1026.04 1055.32 1025.34 1050.13 C 1024.44 1043.57 1023.99 1036.79 1022.21 1030.41 C 1013.69 999.788 990.519 968.31 965.418 949.081 C 942.422 931.467 923.972 933.83 897.477 928.537 C 897.068 916.978 897.64 897.665 895.636 887.328 C 884.834 831.593 828.854 777.733 769.814 780.384 C 753.645 781.109 737.794 783.321 721.903 784.154 C 718.846 719.676 652.665 661.373 588.108 667.371 C 523.972 673.329 488.834 715.92 446.331 759.288 C 437.131 768.541 426.532 780.89 414.666 785.785 C 399.971 776.075 379.65 752.256 365.758 739.372 C 326.666 703.229 286.989 667.724 246.743 632.871 C 228.005 616.688 201.208 595.611 181.461 580.442 C 146 553.203 104.721 525.975 75.3036 491.726 C 43.3784 454.557 26.9668 431.897 17.1114 383.642 C 13.0297 363.898 9.41545 344.06 6.27162 324.145 C 4.48901 321.871 2.12446 319.818 0 317.823 L 0 289.523 C 3.128 287.384 4.23837 285.938 6.75223 283.18 C 12.0953 240.273 22.7134 194.231 45.1717 158.036 C 74.0114 111.556 108.75 74.8428 157.693 50.7023 C 178.638 40.3719 193.536 29.1562 217.297 22.4603 C 231.917 18.3402 272.478 11.7943 279.532 0 z"/>
<path transform="translate(0,0)" fill="rgb(54,120,164)" d="M 0 289.523 C 3.128 287.384 4.23837 285.938 6.75223 283.18 C 6.85132 295.501 6.61408 311.633 6.27162 324.145 C 4.48901 321.871 2.12446 319.818 0 317.823 L 0 289.523 z"/>
<path transform="translate(0,0)" fill="rgb(254,254,254)" d="M 1739.64 0 L 1772.89 0 C 1777.03 6.93174 1793.88 13.4698 1801.12 14.6886 C 1866.18 25.639 1921.37 54.6556 1965.79 103.759 C 1971.31 109.857 1978.95 116.123 1984.24 122.674 C 1992.96 134.396 2001.37 149.235 2009.53 161.388 C 2027.65 188.382 2033.12 231.133 2048 256.872 L 2048 350.88 C 2039.08 364.959 2034.11 390.466 2028.11 407.116 C 2019.97 429.707 2010.44 447.522 1997.5 467.814 C 1963.57 520.986 1913.62 547.613 1867.48 584.705 C 1828.65 616.294 1790.44 648.633 1752.86 681.704 C 1736.45 696.239 1718.69 713.934 1701.86 728.008 C 1687.58 739.959 1639.06 793.561 1623.21 796.969 C 1608.72 794.766 1552.63 733.349 1538.26 719.959 L 1462.1 647.717 C 1453.97 640.069 1444.91 633.113 1436.91 625.419 C 1389.91 580.21 1344.48 533.367 1298.04 487.586 C 1287 476.704 1274.5 467.122 1263.25 456.269 L 1200.96 397.279 C 1179.02 376.102 1153.84 350.698 1129.58 332.368 C 1102.02 311.548 1067.17 302.556 1034.05 298.958 C 964.783 291.431 914.991 312.628 863.232 357.371 C 851.239 367.738 837.654 377.883 825.473 388.966 C 799.015 412.804 773.117 437.587 736.34 442.435 C 691.655 448.326 655.47 427.267 649.803 380.447 C 647.831 365.036 652.14 349.479 661.76 337.278 C 674.042 321.997 692.971 306.756 707.747 293.707 L 768.42 239.878 C 806.208 206.592 836.71 168.259 879.543 141.373 C 922.242 114.573 960.828 107.788 1009.75 103.783 C 1050.14 100.476 1085.43 99.6861 1126.19 103.579 C 1155.95 106.217 1194.37 106.979 1222.53 117.371 C 1272.52 135.813 1324.71 173.879 1380.96 167.349 C 1412.07 161.99 1454.33 152.817 1481.72 136.888 C 1523.13 112.808 1560.28 78.7542 1599.14 51.1198 C 1610.87 42.7774 1633.44 36.9194 1645.23 29.7384 C 1667.33 16.2799 1725.78 19.9217 1739.64 0 z"/>
<path transform="translate(0,0)" fill="rgb(254,254,254)" d="M 901.642 1360 C 888.322 1352.04 865.065 1330.89 861.179 1315.53 C 858.132 1303.48 858.883 1286.34 865.413 1275.5 C 873.588 1261.91 965.242 1172.44 980.737 1160.52 C 991.163 1152.5 1003.13 1144.82 1016.03 1141.75 C 1030.22 1138.37 1049.98 1138.47 1062.75 1146.36 C 1074.25 1153.47 1083.99 1167.5 1087.07 1180.64 C 1089.87 1192.55 1090 1212.73 1083.45 1223.36 C 1071.7 1242.45 963.662 1347.18 942.978 1360 L 901.642 1360 z"/>
</g></svg>